<?xml version="1.0" standalone="no"?>
<!DOCTYPE svg PUBLIC "-//W3C//DTD SVG 20010904//EN"
 "http://www.w3.org/TR/2001/REC-SVG-20010904/DTD/svg10.dtd">
<svg version="1.0" xmlns="http://www.w3.org/2000/svg"
 width="1024.000000pt" height="1024.000000pt" viewBox="0 0 1024.000000 1024.000000"
 preserveAspectRatio="xMidYMid meet">
<metadata>
Created by potrace 1.14, written by Peter Selinger 2001-2017
</metadata>
<g transform="translate(0.000000,1024.000000) scale(0.100000,-0.100000)"
fill="#000000" stroke="none">
<path d="M4870 7192 c-78 -10 -237 -47 -314 -73 -215 -74 -405 -185 -411 -240
-2 -14 -18 -40 -37 -59 -19 -19 -41 -46 -50 -59 l-17 -24 -46 41 c-97 85 -225
118 -338 88 -128 -35 -243 -136 -288 -254 -16 -42 -22 -79 -22 -142 0 -94 17
-155 64 -233 l30 -49 -40 -44 c-51 -55 -99 -130 -136 -214 -44 -101 -52 -110
-95 -110 -29 0 -47 -9 -84 -41 l-46 -41 0 -609 c0 -670 -1 -661 60 -698 17
-10 48 -21 69 -25 47 -7 64 -26 90 -96 28 -75 65 -132 136 -208 l58 -63 -21
-22 c-11 -12 -36 -53 -54 -92 -30 -64 -33 -78 -33 -166 0 -89 2 -100 35 -164
44 -87 118 -163 195 -201 54 -26 70 -29 155 -29 82 1 103 4 155 28 32 15 84
46 114 69 l55 41 15 -22 c16 -25 118 -150 157 -193 24 -27 311 -155 369 -165
30 -5 31 -3 159 224 72 125 162 284 202 353 48 82 68 127 61 131 -7 4 -55 9
-107 12 -110 7 -254 41 -362 87 -220 91 -451 307 -568 532 -52 99 -69 146 -84
233 -12 70 -12 70 -61 97 -67 36 -123 92 -149 147 -18 39 -21 64 -21 166 0
103 4 129 24 180 26 65 111 160 153 170 20 5 26 16 37 68 18 89 91 264 147
354 128 206 319 364 552 457 110 44 184 64 276 72 l72 6 28 -56 c47 -95 137
-148 217 -126 38 11 112 82 148 143 26 43 28 43 161 22 237 -39 534 -174 710
-325 30 -26 65 -52 77 -58 25 -14 869 -17 877 -4 7 12 -55 158 -107 255 -99
181 -271 386 -436 519 -303 245 -714 399 -1071 402 l-135 1 3 -222 4 -223
-251 0 -251 0 -2 228 -3 227 -25 -3z"/>
<path d="M3941 5276 c-19 -7 -49 -29 -65 -50 -28 -34 -31 -45 -31 -106 0 -54
4 -75 21 -97 35 -47 82 -73 131 -73 87 0 150 51 174 142 35 128 -96 233 -230
184z"/>
<path d="M4985 4366 c-77 -47 -104 -137 -63 -216 40 -79 137 -112 223 -76 79
33 121 166 73 235 -37 55 -71 74 -135 78 -48 3 -65 0 -98 -21z"/>
<path d="M5880 4292 c-32 -3 -39 -9 -68 -61 -18 -32 -32 -66 -32 -75 0 -9 -4
-16 -9 -16 -12 0 -53 -71 -46 -78 3 -4 10 0 14 7 7 10 10 8 16 -8 4 -13 4 -25
1 -28 -3 -4 -6 2 -6 13 0 15 -2 16 -9 5 -5 -7 -13 -11 -19 -7 -6 3 -14 -4 -18
-16 -3 -12 -15 -31 -25 -42 -11 -11 -17 -27 -14 -35 3 -9 3 -12 -1 -8 -14 14
-159 -237 -148 -255 4 -6 3 -8 -3 -5 -15 9 -76 -92 -76 -126 0 -18 -3 -23 -9
-15 -7 12 -9 9 -12 -17 -1 -6 -12 -21 -24 -33 -13 -13 -21 -30 -18 -38 3 -8 2
-12 -3 -9 -5 3 -24 -23 -41 -57 -18 -35 -40 -74 -49 -88 -24 -34 -31 -57 -25
-75 7 -18 26 -20 23 -2 -3 23 13 76 27 88 9 7 14 8 14 1 0 -6 -6 -12 -12 -15
-7 -2 -10 -8 -5 -13 7 -7 32 20 50 56 9 18 4 -12 -8 -45 -4 -11 -3 -16 2 -10
11 14 33 17 33 5 0 -6 7 -10 15 -10 12 0 15 -16 15 -80 0 -64 3 -80 15 -80 10
0 15 -10 15 -30 l0 -30 -67 0 c-38 0 -78 -3 -91 -6 -21 -6 -22 -5 -8 22 8 15
12 32 9 38 -4 6 -6 29 -6 51 1 24 -1 30 -4 15 -8 -42 -23 -47 -16 -5 4 28 3
36 -5 31 -7 -4 -13 -17 -13 -29 -1 -18 -2 -18 -6 -4 -3 10 1 25 8 33 6 8 10
17 7 20 -6 5 -36 -44 -81 -133 -15 -29 -22 -53 -17 -53 6 0 17 14 24 31 10 25
14 28 20 14 9 -24 8 -27 -6 -19 -8 5 -9 2 -5 -10 4 -10 3 -15 -3 -11 -6 3 -10
1 -10 -4 0 -22 409 -2 540 26 39 8 52 9 93 12 19 1 26 5 21 13 -5 7 -2 9 9 5
9 -3 46 3 84 14 37 11 73 21 78 23 35 8 190 74 262 111 115 60 285 174 277
186 -3 6 2 9 12 7 11 -2 18 2 17 9 -2 7 0 12 5 11 15 -5 54 30 46 43 -5 9 -2
11 9 6 21 -8 182 150 260 254 31 42 57 79 57 82 0 4 9 16 21 28 13 13 18 27
14 42 -4 15 -3 18 3 9 7 -10 16 -2 36 31 14 25 26 56 27 69 0 13 3 17 6 10 3
-8 15 6 30 33 13 26 22 53 19 61 -3 8 -2 13 3 10 9 -6 51 95 51 124 0 10 6 21
13 23 13 6 -1224 14 -1283 9z m1251 -19 c-11 -5 -11 -7 0 -15 11 -7 9 -8 -4
-4 -10 3 -42 7 -70 8 l-52 1 60 7 c82 9 82 9 66 3z m-268 -10 c-13 -2 -33 -2
-45 0 -13 2 -3 4 22 4 25 0 35 -2 23 -4z m-963 -13 c0 -5 -5 -10 -11 -10 -5 0
-7 5 -4 10 3 6 8 10 11 10 2 0 4 -4 4 -10z m1207 -54 c-7 -17 -42 -22 -52 -7
-8 14 37 43 48 32 5 -5 7 -17 4 -25z m-130 4 c30 0 52 -3 49 -8 -4 -7 -280 -8
-316 -2 -31 6 98 18 154 14 32 -2 83 -4 113 -4z m-1143 -26 c3 -8 2 -12 -4 -9
-6 3 -10 -2 -10 -11 0 -10 -3 -15 -6 -11 -6 5 4 47 11 47 1 0 6 -7 9 -16z
m1246 -45 c0 -12 -27 -29 -34 -22 -4 4 -4 0 -1 -9 4 -9 12 -16 18 -14 7 1 9 1
5 -1 -5 -3 -8 -12 -8 -21 0 -14 -2 -15 -9 -3 -8 12 -11 9 -17 -14 -10 -40 -31
-79 -36 -65 -2 6 -22 13 -45 16 -32 4 -42 1 -47 -12 -9 -23 -2 -27 26 -18 13
4 25 6 27 5 2 -2 8 3 13 11 6 9 7 3 3 -17 -4 -16 -12 -36 -18 -44 -7 -7 -12
-21 -12 -30 0 -10 -10 -16 -27 -18 -20 -1 -28 3 -28 14 0 9 -2 14 -5 11 -8 -8
6 -68 16 -68 5 0 10 10 10 23 1 16 2 18 6 5 2 -10 -6 -30 -18 -45 -13 -16 -19
-20 -16 -10 4 10 3 15 -2 12 -5 -3 -12 3 -15 12 -2 10 -2 1 1 -19 5 -34 2 -39
-22 -48 -15 -6 -31 -8 -36 -5 -5 4 -5 -5 1 -20 6 -15 6 -24 1 -20 -5 3 -17 -5
-25 -17 -12 -17 -13 -24 -3 -31 13 -9 2 -7 -38 9 -19 8 -19 7 -2 -10 22 -23
22 -29 -5 -52 l-22 -19 17 28 c23 36 12 35 -19 -3 -17 -19 -31 -27 -42 -23 -9
3 -14 3 -10 -1 8 -10 -31 -56 -48 -56 -19 0 -27 19 -14 35 8 10 8 15 -2 21 -8
5 0 14 27 26 37 16 38 17 13 18 -16 0 -28 -5 -28 -11 0 -8 -5 -7 -16 2 -14 11
-18 10 -30 -6 -8 -11 -12 -26 -9 -33 3 -8 5 -27 5 -43 0 -22 5 -29 19 -29 21
0 24 -42 3 -46 -7 -1 -8 0 -2 3 20 10 9 20 -22 21 -23 1 -38 -7 -55 -26 -26
-31 -29 -44 -9 -36 8 3 16 2 19 -3 3 -4 -13 -9 -36 -11 -23 -1 -45 -8 -49 -15
-4 -6 -10 -8 -14 -4 -4 3 -1 13 6 22 11 13 10 14 -5 9 -13 -5 -16 -15 -12 -39
3 -17 1 -38 -4 -46 -6 -10 -9 -10 -9 -1 0 6 -5 12 -11 12 -6 0 -9 -6 -6 -14 3
-8 -5 -19 -19 -26 -13 -8 -24 -18 -24 -24 0 -6 -4 -5 -9 3 -8 12 -12 12 -24 2
-20 -16 -54 -24 -97 -23 -25 0 -30 -2 -16 -7 14 -5 16 -10 8 -15 -7 -4 -17 -4
-24 0 -6 4 -8 3 -4 -4 3 -6 -1 -18 -10 -26 -17 -18 -44 -21 -44 -6 0 6 -5 10
-11 10 -7 0 -9 -9 -5 -24 4 -16 1 -26 -10 -30 -9 -4 -13 -2 -8 5 4 8 -3 9 -24
4 -54 -11 -102 -13 -108 -4 -7 12 -24 11 -24 -2 0 -5 5 -7 10 -4 6 3 10 -1 10
-9 0 -9 5 -16 11 -16 5 0 7 -4 4 -10 -3 -5 -11 -10 -16 -10 -6 0 -7 5 -4 10
11 17 -4 11 -26 -11 -15 -15 -28 -19 -46 -14 -16 4 -22 2 -18 -4 4 -7 -1 -8
-11 -4 -11 4 -13 8 -6 11 7 2 12 17 12 33 0 29 -9 34 -52 30 -10 -1 -18 4 -18
13 0 16 3 16 175 1 34 -3 45 -1 35 5 -13 8 -12 10 3 10 10 0 26 -4 36 -9 10
-6 27 -7 39 -4 18 4 22 13 22 44 0 35 -3 39 -25 39 -22 0 -25 4 -25 40 0 33 3
40 20 40 17 0 20 7 20 40 0 33 3 40 20 40 17 0 20 7 20 40 0 33 -3 40 -20 40
-22 0 -23 6 -14 99 l7 61 93 0 94 0 0 40 c0 36 3 40 25 40 23 0 25 4 25 40 l0
40 65 0 65 0 0 -40 c0 -29 4 -40 15 -40 11 0 15 11 15 40 l0 40 40 0 40 0 0
40 0 40 80 0 80 0 0 40 0 40 40 0 40 0 0 -41 0 -40 42 3 42 3 -3 58 -2 57 40
0 41 0 0 40 0 40 40 0 c22 0 40 4 40 8 0 4 9 8 20 8 11 0 20 -3 20 -7z m-1321
-129 c4 0 7 -36 8 -80 2 -70 0 -80 -15 -79 -10 0 -12 3 -4 6 16 6 15 61 -1 93
-23 44 -28 72 -10 66 8 -3 18 -6 22 -6z m1241 -50 c0 -5 -4 -10 -10 -10 -5 0
-10 5 -10 10 0 6 5 10 10 10 6 0 10 -4 10 -10z m-1282 -33 c2 -17 -3 -29 -16
-36 -11 -6 -22 -8 -25 -5 -3 3 -8 -4 -12 -15 -3 -12 -10 -21 -15 -21 -4 0 4
25 19 55 28 57 44 65 49 22z m-38 8 c0 -2 -7 -8 -15 -15 -12 -10 -15 -10 -15
2 0 8 7 15 15 15 8 0 15 -1 15 -2z m-54 -73 c-17 -16 -18 -16 -5 5 7 12 15 20
18 17 3 -2 -3 -12 -13 -22z m51 -69 c-2 -16 -4 -5 -4 22 0 28 2 40 4 28 2 -13
2 -35 0 -50z m-80 -13 c-4 -17 -2 -30 3 -30 10 0 -7 -24 -42 -62 -10 -10 -18
-29 -18 -42 0 -36 -17 -41 -22 -6 -2 16 -1 27 4 24 4 -3 8 6 8 20 0 18 4 24
15 20 8 -4 15 -1 15 5 0 6 -4 11 -9 11 -12 0 -2 40 17 65 11 16 13 16 9 3 -4
-10 -2 -18 3 -18 6 0 10 9 10 20 0 11 3 20 6 20 4 0 4 -13 1 -30z m323 -80 c0
-5 -18 -10 -40 -10 -22 0 -40 5 -40 10 0 6 18 10 40 10 22 0 40 -4 40 -10z
m80 -130 c0 -29 -4 -40 -15 -40 -11 0 -15 -11 -15 -40 0 -36 -2 -40 -25 -40
-25 0 -25 1 -25 80 l0 80 40 0 40 0 0 -40z m-492 -22 l-13 -23 -3 23 c-4 28
21 66 26 39 2 -9 -3 -26 -10 -39z m97 -15 c-2 -8 -9 -11 -15 -8 -11 7 -14 48
-3 59 10 9 25 -34 18 -51z m1075 39 c0 -4 -10 -13 -22 -21 -23 -14 -23 -14 -4
8 20 22 26 25 26 13z m-1255 -83 c-5 -14 -3 -19 3 -15 6 4 10 -2 9 -12 0 -10
-6 -19 -12 -19 -6 0 -10 12 -9 26 2 36 3 41 10 41 3 0 2 -10 -1 -21z m-70 -91
c-7 -23 -7 -23 9 -3 15 20 15 20 16 -4 0 -18 -4 -22 -20 -18 -11 3 -20 0 -20
-6 0 -6 -2 -8 -5 -5 -6 5 15 58 22 58 3 0 1 -10 -2 -22z m1115 12 c0 -5 -7
-10 -15 -10 -8 0 -15 -5 -15 -12 0 -6 -3 -8 -7 -4 -5 4 1 14 11 22 23 17 26
17 26 4z m-238 -150 c-18 -11 -40 -20 -50 -20 -9 0 1 9 23 19 53 26 68 26 27
1z m-484 -85 c-8 -8 -88 -13 -92 -6 -2 3 19 7 46 8 28 1 48 0 46 -2z m282 -5
c-8 -5 -26 -9 -40 -9 -23 1 -23 2 5 9 43 11 52 11 35 0z m-520 -20 c8 -12 27
-20 45 -21 17 -1 22 -3 13 -6 -10 -2 -18 -9 -18 -14 0 -5 -7 -9 -15 -9 -8 0
-15 7 -15 15 0 8 -4 15 -10 15 -5 0 -10 -4 -10 -10 0 -11 -50 -14 -50 -2 0 4
-3 17 -6 30 -6 19 -3 22 23 22 17 0 34 -8 43 -20z m-265 -20 c-3 -5 -11 -10
-16 -10 -6 0 -7 5 -4 10 3 6 11 10 16 10 6 0 7 -4 4 -10z m562 -13 c4 -6 -3
-8 -20 -3 -14 3 -29 2 -32 -4 -3 -5 -39 -11 -78 -12 l-72 -1 55 -7 55 -7 -62
-1 c-65 -2 -94 13 -46 23 53 11 58 13 78 20 16 5 17 5 5 -4 -12 -9 -11 -11 8
-11 12 0 22 4 22 9 0 20 74 19 87 -2z"/>
<path d="M6900 3905 c7 -8 17 -15 22 -15 5 0 3 7 -6 15 -8 8 -18 15 -22 15 -3
0 -1 -7 6 -15z"/>
<path d="M6753 3810 c-6 -24 -6 -37 0 -33 5 3 13 -1 18 -8 13 -20 29 6 29 46
0 23 -5 31 -18 32 -13 1 -21 -9 -29 -37z"/>
<path d="M6639 3725 c-2 -43 -3 -47 -11 -60 -3 -6 7 -10 26 -10 23 0 32 4 32
16 0 10 -4 15 -8 13 -4 -3 -8 13 -8 35 0 30 -4 41 -15 41 -10 0 -15 -11 -16
-35z"/>
<path d="M6402 3474 c1 -9 9 -19 16 -22 9 -3 13 2 10 14 -1 9 -9 19 -16 22 -9
3 -13 -2 -10 -14z"/>
<path d="M6441 3464 c0 -11 3 -14 6 -6 3 7 2 16 -1 19 -3 4 -6 -2 -5 -13z"/>
<path d="M6244 3351 c4 -5 1 -11 -5 -13 -14 -5 0 -38 17 -38 21 0 17 20 -3 21
-14 0 -13 2 5 9 12 5 22 15 22 22 0 9 -3 9 -10 -2 -6 -10 -10 -11 -10 -2 0 6
-5 12 -11 12 -5 0 -8 -4 -5 -9z"/>
<path d="M6325 3329 c-11 -17 0 -20 21 -4 17 13 17 14 2 15 -9 0 -20 -5 -23
-11z"/>
<path d="M6155 3310 c-8 -13 5 -13 25 0 13 8 13 10 -2 10 -9 0 -20 -4 -23 -10z"/>
<path d="M6090 3299 c0 -5 5 -7 10 -4 6 3 10 8 10 11 0 2 -4 4 -10 4 -5 0 -10
-5 -10 -11z"/>
<path d="M5560 3735 c0 -15 4 -24 10 -20 6 3 10 12 10 20 0 8 -4 17 -10 20 -6
4 -10 -5 -10 -20z"/>
</g>
</svg>
